<?xml version="1.0" encoding="iso-8859-1"?>
<!-- Uploaded to: SVG Repo, www.svgrepo.com, Generator: SVG Repo Mixer Tools -->
<svg version="1.1" id="Layer_1" xmlns="http://www.w3.org/2000/svg" xmlns:xlink="http://www.w3.org/1999/xlink" 
	 viewBox="0 0 512 512" xml:space="preserve">
<polygon style="fill:#F7C02D;" points="453.527,0 256,0 235.085,256.832 256,512 453.527,512 "/>
<polygon style="fill:#FBE27B;" points="58.472,0 58.472,418.535 121.208,447.216 151.938,512 256,512 256,0 "/>
<g>
	<polygon style="fill:#F39624;" points="407.043,187.259 256,187.259 235.085,202.933 256,218.606 407.043,218.606 	"/>
	<polygon style="fill:#F39624;" points="407.043,241.159 256,241.159 235.085,256.833 256,272.506 407.043,272.506 	"/>
	<polygon style="fill:#F39624;" points="407.043,295.06 256,295.06 235.085,310.734 256,326.407 407.043,326.407 	"/>
	<polygon style="fill:#F39624;" points="407.043,348.96 256,348.96 235.085,364.634 256,380.307 407.043,380.307 	"/>
</g>
<g>
	<rect x="104.96" y="187.256" style="fill:#F7C02D;" width="151.04" height="31.347"/>
	<rect x="104.96" y="295.058" style="fill:#F7C02D;" width="151.04" height="31.347"/>
	<rect x="104.96" y="348.965" style="fill:#F7C02D;" width="151.04" height="31.347"/>
	<rect x="104.96" y="241.162" style="fill:#F7C02D;" width="151.04" height="31.347"/>
</g>
<polygon style="fill:#E43138;" points="271.673,86.795 304.781,119.903 326.945,97.738 256,26.792 244.506,64.261 256,165.203 
	271.673,165.203 "/>
<polygon style="fill:#F25F67;" points="185.055,97.738 207.219,119.903 240.327,86.795 240.327,165.203 256,165.203 256,26.792 "/>
<polygon style="fill:#F7C02D;" points="151.938,512 151.938,418.535 58.472,418.535 "/>
</svg>